<?xml version="1.0" encoding="utf-8"?>
<!-- Generator: Adobe Illustrator 25.2.1, SVG Export Plug-In . SVG Version: 6.00 Build 0)  -->
<svg version="1.1" id="Layer_1" xmlns="http://www.w3.org/2000/svg" xmlns:xlink="http://www.w3.org/1999/xlink" x="0px" y="0px"
	 viewBox="0 0 1123.03 442.55" style="enable-background:new 0 0 1123.03 442.55;" xml:space="preserve">
<style type="text/css">
	.st0{fill:#8ACCD6;}
	.st1{fill:#95CCAE;}
	.st2{fill:#C9A185;}
	.st3{fill:#7EC5D0;}
	.st4{fill:#7FCACB;}
	.st5{fill:#ECEFE7;}
	.st6{fill:#835E50;}
	.st7{fill:#845F50;}
	.st8{fill:#845F51;}
	.st9{fill:#856051;}
	.st10{fill:#7FCABD;}
	.st11{fill:#846051;}
	.st12{fill:#AC856F;}
	.st13{fill:#AB856F;}
	.st14{fill:#AE8A75;}
	.st15{fill:#AD8670;}
	.st16{fill:#AD8771;}
	.st17{fill:#7FCABE;}
	.st18{fill:#D8DBD4;}
	.st19{fill:#D9DDD6;}
	.st20{fill:#C8A185;}
	.st21{fill:#835F50;}
	.st22{fill:#846152;}
	.st23{fill:#835F51;}
	.st24{fill:#C7A185;}
	.st25{fill:#876455;}
	.st26{fill:#856252;}
	.st27{fill:#856354;}
	.st28{fill:#EDEDED;}
	.st29{fill:#845E50;}
	.st30{fill:#7FCABC;}
	.st31{fill:#7ECABB;}
	.st32{fill:#7FCABB;}
	.st33{fill:#7ECABA;}
	.st34{fill:#7FCABA;}
	.st35{fill:#836354;}
	.st36{fill:#836253;}
	.st37{fill:#836152;}
	.st38{fill:#7DCAB6;}
	.st39{fill:#7FC7BA;}
	.st40{fill:#836658;}
	.st41{fill:#836C5E;}
	.st42{fill:#7FC9BD;}
	.st43{fill:#7FCABF;}
	.st44{fill:#7FC8BC;}
	.st45{fill:#7FC9BC;}
	.st46{fill:#836B5D;}
	.st47{fill:#836A5C;}
	.st48{fill:#83695C;}
	.st49{fill:#81C6D0;}
	.st50{fill:#82C6D1;}
	.st51{fill:#83C6D1;}
	.st52{fill:#83C7D1;}
	.st53{fill:#87C8D2;}
	.st54{fill:#84C7D1;}
	.st55{fill:#88C8D2;}
	.st56{fill:#85C7D1;}
	.st57{fill:#B9DBE0;}
	.st58{fill:#EEF4F3;}
	.st59{fill:#EEF5F4;}
	.st60{fill:#C8A085;}
	.st61{fill:#EEF5F5;}
	.st62{fill:#EEF6F5;}
	.st63{fill:#6F4330;}
	.st64{fill:#6F4230;}
	.st65{fill:#6F422F;}
</style>
<path class="st0" d="M675.16,224.09c5.13,0.6,9.79,2.68,14.49,4.64c5.19,2.16,10.41,4.05,16.19,3.76c4.42-0.22,8.49-1.57,12.51-3.24
	c5.28-2.19,10.49-4.6,16.28-5.17c1.63-0.23,3.25-0.24,4.88,0c5.11,0.62,9.78,2.63,14.45,4.62c5.34,2.27,10.75,4.15,16.7,3.78
	c3.81-0.23,7.34-1.46,10.89-2.7c0.45-0.37,0.98-0.59,1.54-0.72c3.97-1.54,7.83-3.37,12.01-4.32c1.28-0.29,2.59-0.45,3.88-0.67
	c1.63-0.24,3.25-0.24,4.88,0c4.14,0.5,8.01,1.94,11.84,3.49c0.69,0.28,1.41,0.5,2.12,0.75c1.21-0.27,2.21,0.35,3.26,0.75
	c3.96,1.54,7.97,2.67,12.29,2.74c5.53,0.09,10.52-1.76,15.47-3.87c2.67-1.14,5.36-2.21,8.12-3.12c5.89-1.94,11.75-1.89,17.65,0.01
	c4.33,1.39,8.45,3.33,12.69,4.94c7.38,2.81,14.66,2.63,21.96-0.23c3.7-1.45,7.33-3.07,11.07-4.42c7.04-2.54,13.98-2.21,20.89,0.45
	c3.83,1.47,7.6,3.08,11.45,4.5c7.11,2.62,14.1,2.13,21.05-0.57c4.17-1.62,8.22-3.57,12.52-4.86c7.91-2.38,15.45-1.31,22.69,2.48
	c0.16,0.14,0.31,0.28,0.46,0.42c0.38,0.24,0.76,0.47,1.15,0.71c0.52-0.28,0.82,0.1,1.13,0.4c7.48,3.51,15.17,5.29,23.3,2.52
	c3.13-1.07,6.17-2.42,9.25-3.62c1.22-0.48,2.4-1.09,3.75-1.14c0.4,0.57,0.21,1.23,0.21,1.84c0.01,69.96,0.01,139.92,0,209.88
	c0,0.62,0.16,1.26-0.18,1.85c-142.51,0-285.02,0-427.52,0.04c-1.42,0-1.74-0.32-1.74-1.74c0.04-70.76,0.04-141.52,0.04-212.28
	c0.67-0.11,10.83,4.98,16.76,6.08c5.9,1.1,11.46-0.07,16.92-2.25c5.23-2.09,10.32-4.6,15.96-5.53c0.62-0.1,1.24-0.16,1.86-0.24
	C671.91,223.85,673.53,223.84,675.16,224.09z"/>
<path class="st1" d="M830.04,199.1c-0.2-2.68,1.33-4.87,2.13-7.25c0.8-2.41,1.84-4.74,2.77-7.1c0.99-0.55,1.65-0.21,2.09,0.75
	c-0.37,1.89-0.24,3.82-0.41,5.72c0.05,1.2,0.31,2.22,1.81,2.34c1.52,0.12,1.88-0.89,2.11-2.06c0.17-0.8,0.38-1.58,0.62-2.35
	c0.4-1.27,1.14-2.07,2.58-1.92c1.37,0.14,2.34,0.8,2.67,2.21c0.19,0.8,0.17,1.61,0.07,2.41c0.12,1.3,0.72,2.1,2.13,2.1
	c1.59,0,1.98-1.04,2.07-2.35c0.26-1.56,0.49-3.12,0.8-4.66c0.14-0.73,0.24-1.51,0.95-1.98c1.08-0.34,1.94,0.36,2.87,0.66
	c3.5,1.12,6.08-0.48,6.53-4.09c0.29-2.31-0.48-3.41-2.75-3.94c-0.91-0.21-1.91-0.06-2.71-0.69c-0.63-1.03-1.29-2.06-0.91-3.37
	c1.08-1.09,2.82-1.65,2.93-3.55c1.25-2.51,1.18-3.18-0.61-5.19c-0.23-1.97-1.95-3.05-2.8-4.66c5.01-4.03,10.18-7.82,16.07-10.5
	c1.03-0.47,2.1-0.85,3.15-1.27c1.06,0.18,1.71,1.19,2.87,1.29c2.99,0.27,3.72-0.2,4.38-3.17c1.93-1.75,4.22-1.49,6.52-1.17
	c0.41,0.17,0.69,0.48,0.88,0.87c0.09,0.17,0.14,0.36,0.18,0.55c0.45,2.11,0.91,2.52,3.11,2.75c2.04,0.21,2.83-0.24,3.62-2.07
	c0.1-0.23,0.23-0.44,0.42-0.61c2.61,0.68,5.09,1.75,7.54,2.84c2.92,1.3,5.82,2.68,8.53,4.42c2.54,2.44,5.11,4.83,8.38,6.31
	c0.51,0.23,1.23,0.51,0.94,1.38c-0.44,0.36-0.93,0.25-1.43,0.21c-1-0.08-2-0.14-3-0.04c-2.41,0.26-3.45,1.26-4.22,4.05
	c-0.96,0.63-2,0.72-3.09,0.47c-0.81-0.06-1.6-0.4-2.42-0.29c-1.03,0.13-1.89,0.63-1.94,1.72c-0.05,1.16,0.97,1.33,1.86,1.43
	c0.81,0.09,1.63,0.08,2.45,0.08c1.62-0.19,3.24-0.07,4.86-0.06c3.17,2.22,3.56,4.91,0.98,6.88c-0.77,0.03-1.45-0.34-2.19-0.49
	c-2.66-0.53-4.61,0.53-5.33,2.91c-0.78,2.6,0.37,5.4,2.63,6.35c2.03,0.85,4.18,0.66,6.31,0.65c0.55,0.09,0.88,0.44,1.09,0.93
	c0.85,2.65,1.22,5.37,1.38,8.14c0.1,1.51,0.89,2.32,2.41,2.25c1.53-0.07,1.71-1.21,1.77-2.41c0.11-0.81,0.26-1.61,0.53-2.38
	c0.48-1.36,1.46-1.9,2.88-1.94c1.45-0.04,2.39,0.55,2.85,1.92c0.3,0.89,0.56,1.79,0.55,2.74c0.07,0.57,0.29,1.11,0.7,1.5
	c0.7,0.67,1.59,0.71,2.48,0.52c1.13-0.24,0.79-1.26,0.98-2c0.41-2.19-0.1-4.46,0.58-6.63c0.65-1.03,1.79-1.32,2.82-1.74
	c1.26-0.51,1.87-1.33,1.8-2.72c-0.12-2.55-0.09-5.11-1.2-7.51c-0.26-0.57-0.41-1.19-0.16-1.82c1.62-1.24,3.49-1.55,5.47-1.45
	c3.52-0.65,7.04-1.31,10.56-1.96c0.59-0.38,1.33,0.08,1.91-0.33c0.75-0.02,1.51-0.04,2.26-0.06c2.25-0.24,4.51-0.22,6.76-0.01
	c0.75,0.03,1.5,0.06,2.25,0.09c0.36,0.24,0.89-0.17,1.19,0.3c1.89,0.55,3.78,1.1,5.68,1.65c2.17,0.01,3.68,1.45,5.31,2.54
	c2.44,1.64,4.72,3.5,6.6,5.79c0.34,0.43,0.2,1.04,0.55,1.47c3.5,4.15,6.18,8.82,8.66,13.62c0.83,0.4,0.72,1.19,0.79,1.91
	c0.13,0.49,0.26,0.98,0.39,1.47c-0.51,1.83-2.29,2.62-3.31,4.02c-1.99,2.72-4.31,3.22-7.34,1.64c-2.05-1.07-4.36-1.64-6.52-2.52
	c-1.4-0.57-2.5-0.36-3.65,0.59c-2.63,2.17-5.33,4.24-7.91,6.46c-1.45,1.25-2.93,1.47-4.72,0.84c-3.45-1.22-6.88-2.47-10.35-3.63
	c-1.36-0.45-2.35-0.26-3.45,0.66c-2.51,2.11-5.06,4.17-7.6,6.24c-1.93,1.58-2.61,1.66-4.69,0.21c-2.68-1.88-5.45-3.65-8.12-5.55
	c-1.28-0.91-2.34-0.87-3.61-0.04c-3.22,2.1-6.4,4.27-9.64,6.34c-1.53,0.98-2.84,1.04-4.36,0.06c-2.75-1.78-5.61-3.4-8.35-5.2
	c-1.25-0.82-2.36-0.87-3.69-0.16c-3.12,1.65-6.44,2.91-9.53,4.62c-1.57,0.87-2.92,0.75-4.35-0.37c-2.53-1.98-5.07-3.96-7.57-5.98
	c-1.28-1.04-2.39-1.28-3.95-0.6c-3.4,1.5-6.87,2.86-10.29,4.32c-1.59,0.68-2.8,0.51-4.11-0.69c-2.6-2.38-5.38-4.58-7.99-6.94
	c-0.8-0.73-1.6-0.82-2.6-0.56c-3.42,0.89-6.8,1.9-10.21,2.82c-3.51,0.95-3.59,0.99-5.74-2.1
	C832.13,202.37,830.74,200.96,830.04,199.1z"/>
<path class="st2" d="M830.04,199.1c2,1.44,3.02,3.66,4.36,5.6c0.92,1.33,1.79,1.61,3.28,1.16c3.98-1.2,8.01-2.23,11.99-3.39
	c0.83-0.24,1.39-0.15,2.04,0.42c2.92,2.59,5.93,5.09,8.81,7.72c0.88,0.8,1.6,0.94,2.66,0.49c3.82-1.64,7.71-3.12,11.49-4.85
	c1.33-0.61,2.17-0.35,3.19,0.47c2.79,2.26,5.7,4.37,8.44,6.69c1.14,0.97,2.02,0.85,3.22,0.25c3.55-1.78,7.16-3.44,10.72-5.21
	c0.88-0.44,1.53-0.48,2.41,0.08c3.18,2.05,6.44,3.96,9.63,5.99c1.09,0.7,1.92,0.71,3.04-0.05c3.59-2.45,7.31-4.72,10.92-7.15
	c0.97-0.65,1.62-0.55,2.51,0.07c3.15,2.21,6.38,4.3,9.52,6.52c1.05,0.74,1.82,0.8,2.82-0.06c2.97-2.53,6.04-4.95,9-7.49
	c0.75-0.64,1.36-0.68,2.21-0.38c3.98,1.4,7.99,2.72,11.96,4.17c1.24,0.45,2.14,0.21,3.1-0.59c2.85-2.39,5.76-4.69,8.62-7.07
	c1.1-0.92,2.09-1.25,3.57-0.6c3.05,1.34,6.24,2.36,9.35,3.59c1.04,0.41,1.7,0.22,2.47-0.58c1.79-1.86,3.68-3.62,5.53-5.42
	c1.1,1.04,1.18,2.59,1.94,3.8c0.8,0.56,0.94,1.43,1.04,2.31c2.64,6.2,4.91,12.56,7.98,18.58c0.47,0.27,0.39,0.7,0.33,1.12
	c0.04,0.24,0.09,0.48,0.13,0.71c0.51,0.36,0.98,0.74,0.65,1.48c-3.05-0.98-5.99-2.3-9.16-2.95c-6.1-1.26-11.89-0.12-17.54,2.2
	c-2.68,1.1-5.38,2.17-8.05,3.29c-8.04,3.37-16.05,3.26-24.06-0.11c-3.48-1.47-6.99-2.89-10.54-4.2c-7.3-2.69-14.48-2.02-21.55,0.95
	c-2.27,0.95-4.57,1.81-6.81,2.82c-8.85,3.99-17.68,3.99-26.54,0.04c-2.24-1-4.56-1.85-6.81-2.83c-8.14-3.54-16.25-3.49-24.39,0.03
	c-3.3,1.42-6.63,2.77-10,4.01c-7.12,2.62-14.22,2.3-21.23-0.48c-1.51-0.6-3.11-1.02-4.49-1.94c1.54-3.69,3.1-7.38,4.61-11.09
	c2.26-5.57,4.48-11.15,6.74-16.72C829.36,200.01,829.74,199.57,830.04,199.1z"/>
<path class="st1" d="M1011.68,150.68c-1.62-0.26-2.65-1.58-4.05-2.25c-0.7-0.34-1.45-0.73-1.99,0.12c-0.56,0.88,0.4,1.17,0.84,1.57
	c3.35,3.06,5.83,6.63,6.74,11.16c0.23,0.62,0.22,1.23,0.01,1.85c-0.3,2.32-0.99,4.48-2.31,6.47c-0.98,1.47-1.95,1.23-3.15,0.42
	c-2.11-1.42-3.29-3.55-4.41-5.72c-0.29-0.56-0.55-1.13-0.83-1.69c-0.42-0.86-0.88-1.26-1.53-0.16c-0.84,1.44-1.71,1.19-2.85,0.2
	c-1.57-1.36-2.76-3.06-4.25-4.47c-0.57-0.14-0.86-0.61-1.18-1.04c-1.72-3.04-2.97-6.3-4.26-9.56c-0.92,0.18-1.18,1-1.76,1.42
	c-0.53,0.44-1.18,0.71-1.63,1.25c-2.84,2.58-5.58,5.3-9.37,6.51c-1.27,0.93-2.64,1.25-4.16,0.67c-0.02-0.5-0.04-1-0.05-1.49
	c-0.31-2.68-0.31-2.68-3.05-1.9c-2.03,0.57-3.81,1.88-5.99,1.96c-0.35,0.23-0.73,0.35-1.15,0.3c-0.12-0.01-0.24,0-0.35,0.04
	c-1.64,0.32-3.28,0.32-4.93,0l0.01,0c-0.35-1.25-0.26-2.5-0.05-3.76c0.22-2.67,1.38-4.84,3.45-6.53c0.31-0.43,0.67-0.8,1.16-1.04
	l0,0.01c0.26-0.46,0.7-0.64,1.19-0.75c3.59-2.16,7.57-3.04,11.68-3.51c0.9-0.3,1.83-0.06,2.74-0.14c0.33-0.03,0.8,0.06,0.64-0.56
	c-0.39-0.51-0.78-1.02-1.18-1.53c-0.42-0.29-0.78-0.65-1.08-1.06c-0.88-0.4-1.77-0.8-2.65-1.2c-0.41,0.22-0.6-0.05-0.77-0.35
	c-1.14-0.56-2.36-1.07-1.51-2.73c0.06-0.61,1.14-1,0.39-1.79c-3.16-0.41-6.22-1.19-9.04-2.73c-0.53-0.21-1.11-0.32-1.55-0.72
	c-0.4-0.25-0.8-0.51-1.21-0.76c-0.42-0.15-0.83-0.3-1.07-0.72c-0.64-0.65-1.29-1.29-1.93-1.94c-0.1-0.1-0.12-0.19-0.06-0.27
	c0.05-0.07,0.09-0.1,0.14-0.1c0.37-0.37,0.74-0.75,1.1-1.12c0.58-0.39,1.3-0.45,1.9-0.79c2.42-1.08,5.03-1.55,7.56-2.26
	c0.37-0.33,0.79-0.48,1.29-0.33c1.95,0.37,3.93-0.13,5.88,0.28c7.28,1.43,11.21,6.68,14.48,12.7c0.31,0.56,0.34,1.58,1.16,1.51
	c0.59-0.05,0.71-0.96,0.98-1.52c0.94-1.91,1.83-3.84,2.74-5.77c0.35-0.54,0.29-1.37,1.11-1.58c1.85-2.96,4.07-5.34,7.81-5.85
	c1.06-0.15,1.97,0.2,2.96,0.24c0.85,0.03,0.71,0.72,0.59,1.28c-0.71,3.29-1.66,6.46-4.64,8.5c0.04,0.11,0.06,0.28,0.12,0.31
	c2.76,1.23,2.81,1.52,0.7,4.2c-0.32,0.44-0.39,1.13-1.14,1.14c-0.61,0.41-1.14,0.89-1.5,1.54c-0.28,0.48-0.46,0.9,0.4,0.78
	c0.65,0.02,1.3,0,1.87-0.38c0.24-0.24,0.49-0.24,0.76-0.04c2.03-0.26,4.05-0.51,6.08-0.77c2.26-0.21,4.52-0.3,6.77-0.01
	c4.68,0.78,8.31,2.91,10.05,7.61c1.1,2.98,1.05,3.16-2.1,3.83c-0.77,0.5-1.52,0.53-2.27-0.05c-1.33-0.3-2.73-0.26-3.99-0.85
	c-0.86-0.41-1.33-0.19-1.32,0.8c0.01,1.09-0.29,2.1-0.74,3.07C1013.2,150.98,1012.44,150.9,1011.68,150.68z"/>
<path class="st3" d="M930.38,19.66c3.86,2.9,7.71,5.78,11.58,8.69c0.53,0.4,1.61,1.24,2.13,1.67c0.78,0.64,1.78,1.54,3.01,2.48
	c1.97,1.51,3.82,2.91,5.9,4.52c0.87,0.67,0.98,0.78,1.5,1.18c3.64,2.84,16.2,12.53,17.76,13.63c0.35,0.25,5.86,4.58,6.82,5.34
	c0.69,0.54,1.7,1.36,1.87,1.47c0.64,0.42,1.8,1.47,1.89,1.53c0.31,0.23,2.6,1.76,2.71,2.96c-0.23,0.43-2.69,0.86-4.15,1.2
	c-7.75,1.81-21.6,5.02-32.41,7.53c-1.46,0.34-2.9,0.72-4.35,1.08c-0.32,0.45-0.7,0.32-1.09,0.11c-6.11,1.37-12.23,2.69-18.32,4.14
	c-1.7,0.4-3.4,0.76-5.11,1.07c-0.83-0.72-0.52-1.63-0.37-2.47c2.41-13.66,4.84-27.31,7.27-40.96c0.75-4.22,1.46-8.45,2.24-12.66
	C929.44,21.26,929.45,20.24,930.38,19.66z"/>
<path class="st2" d="M856.81,75.68c0.17-4.68,1.8-8.93,3.95-13c0.49-0.93,0.42-1.43-0.43-1.94c-3.59-2.19-4.36-6.26-2.55-10.06
	c0.83,0.02,1.14-0.67,1.6-1.16c3.04-3.26,7.69-4.48,11.49-3.02c1.42,0.98,2.07,2.4,1.84,4.04c-0.21,1.51,0.4,1.35,1.43,1.05
	c1.68-0.5,3.37-0.93,5.07-1.34c0.7-0.17,3.51-0.34,4.09-0.32c0.71,0.03,1.46,0.22,1.93,0.31c1,0.18,1.99,1.01,3,0.03
	c-0.22-0.74-0.2-1.48-0.01-2.22c0-1.17,0.47-2.14,1.23-3c0.14-0.39,0.38-0.63,0.83-0.56c5.35-2.64,12.2,1.12,14.28,5.8
	c0.89,2.47-0.16,4.46-1.83,6.06c-1.27,1.22-1.19,2.04-0.34,3.5c3,5.17,5.42,10.61,6.37,16.58c0.22,1.63,0.23,3.25-0.01,4.88
	c-0.5,2.93-2.11,5.21-4.26,7.16c-1.67,2.33-4.26,3.27-6.72,4.36c-1.6,0.71-3.26,1.33-5.01,1.69c-1.69,0.35-3.19,1.13-4.36,2.48
	c-0.7,0.81-1.48,1.55-2.28,2.27c-1.43,1.28-2.18,1.39-3.6,0.05c-2.07-1.95-4.37-3.14-7.26-3.05c-1.18-0.19-2.36-0.39-3.52-0.69
	c-1.3-0.27-2.75,0.02-3.82-1.07c-2.91-1.06-5.83-2.04-8.12-4.32c-1.77-1.76-2.71-3.82-3-6.24c-0.39-0.73,0.1-1.58-0.32-2.3
	c0-1.23,0-2.46,0-3.69C856.91,77.26,856.46,76.42,856.81,75.68z"/>
<path class="st2" d="M834.94,120.93c0.71-0.1,3.37-0.26,3.75-0.2c1.9,0.31,1.65-0.89,1.91-1.9c0.18-1.27,0.54-2.41,1.94-2.85
	c1.84-0.21,3.65-0.78,5.55-0.32c2.93,0.7,5.07,2.92,5.41,5.79c-0.08,0.24,0.4-0.1,0.14-0.11c-0.04,0-0.03-0.06-0.02-0.19
	c0.02-0.19,0.09-0.36,0.25-0.47c0.84,1.47,0.19,2.78-0.69,3.82c-1.13,1.33-0.71,2.27,0.15,3.46c3.22,4.46,5.98,9.18,7.44,14.54
	c1.93,7.11,0.14,11.31-6.3,14.99c-0.87,0.5-1.74,1-2.61,1.5c-0.4,0.58-1.05,0.64-1.65,0.79c-1.87,0.49-3.43,1.46-4.72,2.91
	c-0.79,0.89-1.64,1.73-2.57,2.48c-1.47,1.2-2.36,1.3-3.43-0.28c-1.04-1.53-2.3-1.64-3.85-1.55c-1.75,0.1-3.5,0.11-5.24,0.38
	c-0.47-0.05-0.96-0.01-1.4-0.22c-0.35-0.16-0.62-0.43-0.85-0.72c-0.79-1-1.69-1.46-2.93-0.75c-0.37,0.21-0.82,0.37-1.21-0.02
	c-3.43-1.55-4.62-4.42-5.74-7.95c-0.22-0.69-0.41-3.06-0.43-3.43c-0.26-2.64-0.28-5.29,0.01-7.93c0.07-2.77,0.68-5.44,1.44-8.1
	c0.12-0.43,0.53-0.9,0.13-1.4c-0.49-0.23-1.1,0.03-1.55-0.37c-2.3-1.1-3.11-3.54-1.91-5.68c1.05-2.3,2.21-4.45,4.68-5.63
	c2.23-1.05,4.38-1.34,6.64-0.23c0.18,0.02,0.32,0.11,0.42,0.27c0.6,1.98,0.6,1.98,3.06,0.65
	C831.39,121.95,833.84,121.09,834.94,120.93z"/>
<path class="st4" d="M875.41,95.74c3-0.17,5.49,0.93,7.48,3.15c1,1.11,1.89,1.31,2.87-0.02c2.22-3,5.19-4.68,8.84-5.51
	c3.64-0.83,6.75-2.94,9.9-4.88c0.3,0.9,0.59,1.8,0.89,2.7c0.26,0.21,0.56,0.37,0.73,0.67c0.91,2.09,1.08,4.3,1.01,6.55
	c-0.02,0.69-0.15,1.36-0.74,1.83c-0.24,0.38-0.47,0.76-0.71,1.15c-0.15,0.35-0.24,0.76-0.75,0.76c-0.64,0.38-1.28,0.77-1.92,1.15
	c-0.92-0.44-0.16-0.98-0.07-1.46c0.26-1.43-0.4-2.44-1.69-2.72c-1.3-0.28-1.88,0.28-2.13,1.47c-0.24,1.16-0.26,2.15,1.26,2.39
	c0.55,0.09,1.14,0.17,1.5,0.69c-0.36,0.45-0.91,0.31-1.37,0.43c-0.74,0.2-1.08,0.71-0.71,1.39c0.79,1.44,1.15,3.14,2.45,4.3
	c0.73,1.14,1.11,2.36,0.83,3.73c0.13,0.51,0.25,1.01,0.38,1.52c0.8,0.45,0.76,1.19,0.64,1.95c0.01,0.11,0.03,0.23,0.06,0.34
	c0.23,0.24,0.24,0.49,0.04,0.76c0.02,0.28,0.05,0.57,0.07,0.85c1.63,2.18,1.05,4.67,0.76,7.02c-0.24,1.92-2.28,2.25-3.7,3.06
	c-4.26,1.34-8.48,2.81-12.98,3.21c-5.99,0.53-11.79-0.53-17.56-1.93c-0.55-0.13-1.04-0.44-1.41-0.9c-2.88-1.05-3.28-2.06-2.89-5.35
	c0.55-4.76,1.48-9.44,2.42-14.12c0.06-0.3,0.01-0.61,0.01-0.91c-0.75-0.29-1.2,0.44-1.82,0.4c-2.64-0.74-4.35-2.48-5.29-5.01
	c-1.07-2.97,1.12-4.6,2.75-6.37c1.09-1.19,2.36-2.22,3.38-3.48c1.38-0.11,2.68,0.35,4.01,0.56c0.29,0.85-0.31,1.55-0.41,2.34
	c-0.08,0.61-0.35,1.3,0.33,1.69c0.91,0.52,1.9,0.58,2.85,0.07c0.65-0.35,1.02-0.89,0.94-1.67C875.61,96.93,875.08,96.4,875.41,95.74
	z"/>
<path class="st2" d="M921.61,161.61c-3.53-1.92-7.04-3.87-9.54-7.17c-1.55-1.06-2.09-2.59-2.1-4.39c-0.03-5.53,2.33-10.2,5.3-14.64
	c0.08-0.17,0.99-1.49,1.32-2c0.14-0.21,1.97-2.48,2.19-2.78c0.11-0.2,0.05-0.38-0.06-0.57c-0.25-0.32-0.51-0.63-0.67-1.01
	c-0.24-0.88-0.65-1.6-0.86-2.6c-0.15-0.73-0.2-1.58,0.24-2.32l0,0.01c0.1-0.13,0.22-0.23,0.36-0.31c0.95-0.92,1.63-2.07,2.62-2.96
	c3.01-2.72,6.34-2.9,9.58-0.46c0.21,0.15,0.41,0.28,0.67,0.32c0.12,0,0.41,0.43,0.47,0.63c0.34,1,0.3,2.11-0.1,3.15
	c-0.04,0.11-0.07,0.23-0.06,0.36c1.27,1.09,2.82,0.54,4.16,0.5c1.12-0.04,3.08,0.39,3.93,0.69c0.32,0.11,1.99,0.72,2.58,1.11
	l-0.01,0c0.65,0.42,1.1,0.07,1.53-0.39c0.47-1.29,1.1-2.42,2.64-2.64c3.93-0.78,7.77,1.94,9.05,6.89c0.09,0.36,0.25,0.73,0.23,1.1
	c-0.14,2.27-1.49,3.36-2.7,3.99c-0.56,0.29-0.98,0.59-0.51,1.27c0.51,1.76,0.95,3.53,1.1,5.35c0.02,0.22,0.29,2.23,0.38,2.98
	c0.06,0.52,0.55,6.05,0.03,8.32c-0.03,0.11-0.65,3.24-0.78,3.73c-0.19,0.68-0.49,1.48-0.86,1.93c-0.49,0.6-0.93,1.25-1.4,1.88
	c-0.26,0.36-0.32,0.85-0.75,1.1c-0.72,0.38-1.55,0.47-2.27,0.86c-1.65,0.88-1.78,1.75-0.44,3c0.41,0.38,0.95,0.6,1.28,1.08
	c0.07,0.19,0.01,0.33-0.18,0.41c-2.08,0.44-3.71,2.07-5.89,2.25c-0.62-0.83,0.03-1.7-0.1-2.56c-0.31-2.03-0.67-2.38-2.83-2.42
	c-1.13-0.02-2.28,0.02-3.39-0.22c-1.59-0.35-2.76,0.12-3.75,1.48c-1.32,1.81-2.1,1.87-3.33,0.13c-1.36-1.91-3.28-2.86-5.28-3.8
	C922.74,162.57,921.94,162.42,921.61,161.61z"/>
<path class="st4" d="M921.61,161.61c3.14,0.94,6,2.3,7.88,5.15c0.66,1.01,1.22,0.93,1.72-0.11c1.05-2.19,2.79-2.62,5.02-2.17
	c1.1,0.22,2.27,0.23,3.39,0.13c1.94-0.18,2.74,0.67,2.88,2.55c0.09,1.1,0.03,2.12-0.42,3.12c-0.52,0.54-1.04,1.09-1.55,1.63
	c-0.32,1.1-1.34,1.7-1.9,2.62c1.4,3.07,1.91,6.29,1.92,9.66c0,1.39-0.37,2.25-1.7,2.71c-1.12,0.38-2.21,0.86-3.31,1.3
	c-1.08,1.66-2.94,1.7-4.54,1.89c-3.84,0.46-7.66,0.4-11.16-1.69c-0.83-0.49-1.6-0.99-2.04-1.89c-0.28-0.2-0.57-0.4-0.85-0.61
	c-2.82-0.7-3.83-2.09-3.34-4.87c0.32-1.8,0.26-3.81,2.04-5.04c1.8-2.42,0.9-4.47-0.87-6.41c-1.4-0.87-2.04-2.13-1.92-3.78
	c-0.7-2.36,1.07-4.32,4.13-4.56C918.55,161.13,920.09,161.33,921.61,161.61z"/>
<path class="st4" d="M830.41,163.19c2.4-0.71,4.86-0.28,7.29-0.39c1.09-0.05,1.5,0.85,2.01,1.51c1.05,1.37,1.9,1.65,3.16,0.13
	c1.16-1.38,2.64-2.49,3.98-3.71c1.42-1.29,3.13-1.78,5.02-1.74c0.91,0.73,2.12,0.62,3.12,1.12c1.63,1.04,3.3,2.06,3,4.42
	c0.31,1.38-0.46,2.35-1.25,3.32c-1.59,0.77-1.96,1.93-1.25,3.54c0.27,0.6,0.63,1.27,0.24,1.98c0.27,1.15,0.54,2.31,0.81,3.46
	c-0.08,0.04-0.16,0.07-0.24,0.11c-0.44,0.06-0.89-0.17-1.3-0.05c-0.49,0.14-1.41-0.24-1.28,0.85c0.1,0.84,0.51,1.37,1.44,1.43
	c0.65,0.04,1.32-0.59,1.96,0.04c0.91,2.88,0.25,4.16-2.68,5.35c-0.66,0.27-1.35,0.24-2.01,0.42c-1.33,1.09-2.98,1.23-4.57,1.55
	c-2.6,0.52-5.23,0.55-7.86,0.35c-1.17-0.09-2.4-0.2-3.19-1.31c-0.49-0.57-1.2-0.64-1.87-0.81c-1.43-0.68-2.65-1.67-3.85-2.68
	c-0.23-0.87-0.23-1.74,0-2.61c0.1-1.39,0.02-2.81,0.5-4.16c0.76-0.12,0.98,0.66,1.53,0.89c0.48,0.21,0.99,0.7,1.49,0.1
	c0.44-0.53,0.42-1.14-0.01-1.7c-0.42-0.54-0.89-0.57-1.44-0.16c-0.37,0.28-0.71,0.74-1.29,0.45c0.02-0.37,0.05-0.73,0.07-1.1
	c0.12-1.55-0.66-2.48-1.96-3.25c-1.3-0.77-2.44-1.78-2.3-3.56c0.15-0.71,0.52-1.34,0.83-1.99
	C828.96,164.21,829.49,163.49,830.41,163.19z"/>
<path class="st5" d="M869.39,129.39c4.01,0.7,7.97,1.62,12.04,2.06c6.11,0.66,11.85-0.5,17.55-2.42c0.74-0.25,1.42-0.86,2.3-0.5
	c0.53,0.86,0,1.58-0.33,2.3c-1.09,2.42-2.03,4.88-2.66,7.46c-0.4,2.16-0.64,4.33-0.96,6.49c-0.12,0.8-0.18,1.75-1.19,1.92
	c-2.51,0.43-5.03,0.79-7.5-0.22c-0.14-0.23-0.28-0.46-0.41-0.69c-0.91-1.14-0.48-2.56-0.79-3.83c-0.25-1.04-0.29-2.13-0.78-3.11
	c-0.29-0.57-0.61-1.18-1.31-1.24c-0.77-0.06-1.05,0.61-1.33,1.16c-0.78,1.54-1.18,3.2-1.41,4.89c-0.18,1.34-0.66,2.51-1.48,3.57
	c-2.2,0.39-4.41,0.95-6.48-0.45c-0.4-1.21-0.47-2.46-0.36-3.7c0.39-4.62-1.31-8.48-4.15-11.98
	C869.77,130.66,869.06,130.22,869.39,129.39z"/>
<path class="st2" d="M986.33,148.73c0.7-0.85,1.4-1.71,2.32-2.84c1.11,4.09,2.94,7.51,4.45,11.07c0.34,1.29,0.04,2.45-0.68,3.53
	c-1.12,4.08-2.22,8.17-3.36,12.24c-0.74,2.63-1.54,5.23-2.31,7.85c0.2,0.47,0.14,0.81-0.46,0.84c-3.47-3.48-7.28-6.51-11.69-8.72
	c3.75-4.5,6.53-9.57,8.71-14.99c0.54-1.33,1.02-2.68,1.53-4.02c-0.03-0.32,0.07-0.58,0.31-0.78c-0.11-1.12,0.61-2,0.85-3.02
	C985.92,149.45,986.04,149.07,986.33,148.73z"/>
<path class="st2" d="M930.38,19.66c-1.59,9.05-3.18,18.11-4.78,27.16c-1.82,10.29-3.66,20.58-5.49,30.87
	c-0.03,0.18,0.01,0.38,0.01,0.57c-0.63,3.31-1.26,6.62-1.89,9.93c0.18,0.69,0.4,1.38-0.38,1.87c-0.78,4.59-1.58,9.18-2.31,13.79
	c-0.12,0.76-0.6,1.03-1.12,1.35c-0.39-0.56-1.48-0.4-1.44-1.4c0.05-0.18,0.13-0.34,0.24-0.48c0.14-0.76-0.04-1.57,0.39-2.29
	c-0.2-0.38-0.24-0.75,0.01-1.12c-0.01-0.13-0.02-0.25-0.03-0.38c-0.21-0.5-0.27-1.03-0.19-1.57c0.67-2.35,0.99-4.77,1.47-7.16
	c0.22-1.1-0.02-1.95-0.83-2.67c1.6-0.12,2.05-1.17,2.29-2.57c0.81-4.79,1.72-9.56,2.55-14.34c1.19-6.87,2.33-13.76,3.52-20.63
	c0.86-4.97,1.75-9.94,2.65-14.9c0.99-5.45,2.07-10.89,2.95-16.36c0.22-1.39,0.92-1.24,1.8-1.19
	C931.03,18.21,930.41,19.06,930.38,19.66z"/>
<path class="st6" d="M897.76,137.72c0.83-3.19,2.2-6.18,3.51-9.19c0.09-0.09,0.16-0.23,0.26-0.26c3.81-0.99,3.07-4.02,2.99-6.73
	c-0.03-0.87-0.16-1.74-0.25-2.61c0.47,0.08,0.94,0.15,1.41,0.23c0.3-0.13,0.59-0.24,0.7,0.22c0.14,0.05,0.29,0.11,0.43,0.16
	c1.89,0.11,3.25,1.04,4.1,2.73c0.53,0.75,1.06,1.5,1.59,2.25c0.46,0.62,0.77,1.33,1.21,1.97c0.06,0.19,0.09,0.39,0.08,0.6
	c0.02,1.13,0.01,2.26,0,3.4c0.01,0.32-0.03,0.63-0.13,0.93c-1.72,5.62-7.58,8.32-12.79,7.74
	C899.68,139.02,898.5,138.87,897.76,137.72z"/>
<path class="st2" d="M861.82,104.39c1.61,1.84,3.27,3.61,5.29,5.01c-1.82,1.87-4,3.29-6.07,4.85c-1.95-1.09-3.36-2.71-4.55-4.55
	C858.08,107.75,859.96,106.08,861.82,104.39z"/>
<path class="st7" d="M914.03,88.12c1.62-0.2,1.98,0.42,1.58,2c-0.54,2.16-0.85,4.38-1.17,6.59c-0.1,0.68-0.46,1.12-0.84,1.6
	c-0.53,0.56-0.8,0.08-1.1-0.28c-0.12-0.02-0.23-0.05-0.35-0.08c-2.23-1.71-3.01-4.29-1.92-6.37
	C910.79,89.65,912.02,88.46,914.03,88.12z"/>
<path class="st2" d="M910.24,91.58c-0.37,2.43,0.92,4.35,1.92,6.37c-1.7,0.22-3.09,1.21-4.58,1.94c-0.41,0.2-0.75,0.39-1.19,0.34
	c0.39-2.98-0.14-5.87-0.84-8.74c0.67-0.16,1.34-0.19,2.01,0.02C908.45,91.53,909.34,91.56,910.24,91.58z"/>
<path class="st2" d="M828,166.97c0.15,1.99,1.69,3.02,3.16,3.66c1.96,0.86,1.56,1.85,0.76,3.16c-0.15,0.01-0.3,0.02-0.45,0.02
	c-0.62,0.19-1.23,0.2-1.85-0.01c-2.86,0.24-4.08-2.41-4.56-6.14C825.86,166.63,826.93,166.79,828,166.97z"/>
<path class="st8" d="M856.49,109.71c1.83,1.2,3.25,2.82,4.55,4.55c-0.95,0.72-1.91,1.43-3.04,1.87c-1.12,0.43-2.23,0.55-3.13-0.44
	c-0.84-0.93-1.13-1.92-0.44-3.15C855.01,111.5,855.43,110.38,856.49,109.71z"/>
<path class="st9" d="M828,166.97c-0.92,0.49-1.92,0.63-2.93,0.7c-2.28-1.52-1.41-3.63-1.06-5.65c3.02-1.62,3.54-1.5,4.92,1.17
	c0.5,0.6,0.23,1.22,0.05,1.84C828.87,165.78,828.51,166.41,828,166.97z"/>
<path class="st10" d="M901.88,103.67c-0.37,0-0.78,0.09-1.12-0.03c-0.85-0.29-2.29,0-2.41-1c-0.15-1.21-0.14-2.66,0.72-3.75
	c0.54-0.69,1.34-0.85,2.19-0.45c0.38,0.18,0.78,0.82,1.14-0.07c0.11-0.28,0.44-0.24,0.49,0.1c0.24,1.6,1.55,3.18,0.11,4.82
	C902.73,103.71,902.28,103.64,901.88,103.67z"/>
<path class="st11" d="M874.65,146.81c2.27,0.21,4.54,0.15,6.8-0.01c0.13-0.15,0.26-0.15,0.4-0.01c0.21,1.56-0.05,2.9-1.79,3.4
	c-2.53,0.72-4.76-0.01-5.86-1.85C874.35,147.83,873.92,147.15,874.65,146.81z"/>
<path class="st11" d="M948.05,167.71c-0.19-0.03-0.38-0.04-0.55-0.1c-1.29-0.45-2.27-1.4-2.31-2.69c-0.04-1.16,1.24-1.62,2.18-2.09
	c0.67-0.34,1.42-0.5,2.19-0.42c0.36,0.01,0.64,0.13,0.75,0.51c0.16,0.33,0.32,0.65,0.49,0.98c0.5,0.79,0.2,1.53-0.14,2.26
	c-0.36,0.35-0.72,0.7-1.08,1.05C949.15,167.64,948.73,168.09,948.05,167.71z"/>
<path class="st12" d="M870.87,46.49c-3.67-0.17-7.24-0.04-10.22,2.62c-0.67,0.6-1.16,1.29-1.71,1.96c-0.8,0.96-0.9,0.1-1.16-0.39
	c1.72-3.28,4.45-5.1,8.11-5.55C867.73,44.89,869.49,45,870.87,46.49z"/>
<path class="st13" d="M904.56,50.29c-1.43-1.5-2.73-3.11-4.57-4.22c-2.78-1.7-5.64-2.43-8.81-1.37c-0.36,0.12-0.71,0.3-1.02-0.1
	c-0.19-0.19-0.15-0.3,0.12-0.32c1.78-1.72,3.94-1.83,6.11-1.15C900.14,44.3,903.47,46.04,904.56,50.29z"/>
<path class="st14" d="M930.67,120.74c-0.25,0.3-0.53,0.29-0.82,0.08c-4.37-3.25-8.28-1.09-11.04,2.72
	c-0.18,0.25-0.23,1.31-1.05,0.53c-0.41-0.61-0.06-1.28,0.23-1.68c0.69-0.92,0.97-1.36,1.74-2.34c0.36-0.46,1.14-0.95,1.57-1.18
	c2.08-0.59,3.47-0.81,5.7-0.69c1.07,0.06,2.38,0.88,2.87,1.5C930.15,120.03,930.4,120.39,930.67,120.74z"/>
<path class="st15" d="M827.31,121.53c-0.98,0.52-1.68-0.51-2.63-0.45c-3.42,0.19-5.93,1.69-7.47,4.76
	c-0.31,0.61-0.57,1.25-0.85,1.87c-0.1,0.23-0.24,0.22-0.32,0c-0.06-0.17-0.05-0.37-0.07-0.55c-0.68-1.7,0.6-2.79,1.31-4.02
	c0.39-0.67,1.15-1.13,1.75-1.69c1.37-0.75,2.72-1.51,4.33-1.69c0.93-0.1,1.74,0,2.47,0.57l0.02,0.01
	C826.4,120.66,827.14,120.75,827.31,121.53z"/>
<path class="st16" d="M853.88,120.67c-0.04,0.37-0.08,0.74-0.15,1.4c-0.34-0.71-0.56-1.18-0.8-1.64c-1.91-3.73-4.45-4.92-8.85-4.21
	c-0.52,0.08-1.19,0.79-1.55-0.25C846.82,113.22,852.46,115.56,853.88,120.67z"/>
<path class="st15" d="M954.84,132.08c-0.24-0.58-0.51-1.14-0.72-1.73c-1.25-3.55-3.56-5.72-7.48-5.85
	c-0.28-0.01-0.56-0.23-0.84-0.35c0.13-0.12,0.26-0.23,0.4-0.35c0.14-0.17,2.2-0.4,3-0.09c0.76,0.42,3.02,1.67,3.39,2.03
	c1.03,1,1.61,2.13,2.1,3.54C955.01,130.2,955.36,131.14,954.84,132.08z"/>
<path class="st17" d="M831.86,174.89c0.23-0.2,0.52-0.37,0.68-0.61c0.39-0.6,0.86-1.28,1.6-0.94c0.7,0.32,1.29,0.94,1.51,1.81
	c0.25,0.98-0.48,1.89-0.97,2c-1.44,0.35-2.46-0.54-3.1-1.85C831.67,175.16,831.77,175.02,831.86,174.89z"/>
<path class="st18" d="M675.16,224.09c-1.63,0-3.25,0-4.88-0.01C671.91,223.54,673.53,223.53,675.16,224.09z"/>
<path class="st18" d="M739.5,224.09c-1.63,0-3.25,0-4.88,0C736.25,223.54,737.88,223.53,739.5,224.09z"/>
<path class="st18" d="M803.85,224.09c-1.63,0-3.25,0-4.88,0C800.6,223.54,802.22,223.53,803.85,224.09z"/>
<path class="st18" d="M908.77,76.44"/>
<path class="st18" d="M908.76,81.32"/>
<path class="st19" d="M986.28,181.42c0.15-0.28,0.31-0.56,0.46-0.84c1.03,0.49,0.35,1.26,0.31,1.92
	C986.62,182.27,986.33,181.93,986.28,181.42z"/>
<path class="st18" d="M783.08,229.07c-0.42,0.44-0.94,0.67-1.54,0.72C781.9,229.21,782.24,228.6,783.08,229.07z"/>
<path class="st18" d="M856.5,81.67c0.49,0.71,0.31,1.52,0.32,2.3C856.24,83.28,856.56,82.45,856.5,81.67z"/>
<path class="st18" d="M856.81,75.68c0,0.78,0.18,1.58-0.3,2.3C856.56,77.21,856.25,76.39,856.81,75.68z"/>
<path class="st2" d="M917.81,186.51c5.61,3.78,11.54,4.1,17.73,1.68c0.19,2.37,0.13,4.72-0.29,7.06c-1.75,0.63-3.5,0.56-5.26,0.02
	c-0.16-0.8-0.31-1.6-0.47-2.39c-0.25-1.23-0.58-2.21-2.25-2.14c-1.59,0.07-2.45,0.62-2.63,2.23c-0.07,0.68-0.3,1.34-0.46,2.01
	c-1.74,1.05-3.47,1.04-5.2-0.03C918.59,192.15,918.2,189.33,917.81,186.51z"/>
<path class="st20" d="M836.81,185.55c4.9,1.33,9.73,0.76,14.53-0.53c0.42-0.11,0.86-0.17,1.28-0.25c0.11,0.04,0.15,0.09,0.13,0.15
	c-0.02,0.07-0.05,0.1-0.08,0.1c-0.97,2.22-0.64,4.74-1.54,6.98c-1.69,0.95-3.44,0.81-5.21,0.25c-0.02-0.69-0.09-1.39-0.05-2.08
	c0.09-1.61-0.76-2.21-2.24-2.39c-1.59-0.19-1.66,0.9-1.92,1.96c-0.18,0.73-0.48,1.42-0.73,2.13c-1.67,0.49-3.29,0.15-4.89-0.35
	c0-1.48,0.03-2.95-0.02-4.43C836.04,186.42,836.24,185.92,836.81,185.55z"/>
<path class="st21" d="M915.65,176c-0.31,0.88-0.61,1.77-0.92,2.65c-1.05,2.97-1.02,5.61,2.23,7.26c-2.31,0.68-4.59,0.49-6.77-0.46
	c-2.25-0.98-2.96-2.97-2.94-5.24c0.01-1.96,0.47-3.86,2.43-4.74C911.69,174.56,913.77,174.6,915.65,176z"/>
<path class="st21" d="M852.67,185.04c0.01-0.09,0-0.18-0.05-0.26c0.38-0.2,0.75-0.43,1.14-0.6c3.36-1.46,3.36-1.46,3.03-5.1
	c-0.63-0.69-0.91-1.41-0.26-2.25c0,0,0.01,0.01,0.01,0.01c0.19-0.02,0.37-0.04,0.56-0.05c2.05-0.02,4.29-0.02,5.22,2.13
	c0.98,2.25,0.08,4.45-1.4,6.29c-1.3,1.62-3.13,1.75-4.98,1.22C854.81,186.11,853.76,185.51,852.67,185.04z"/>
<path class="st21" d="M888.62,146.75c2.58,0.06,5.17,0.11,7.75,0.17c-0.26,2.8-1.29,3.49-4.67,3.11
	C889.01,149.74,888.42,149.1,888.62,146.75z"/>
<path class="st22" d="M909.41,169.9c-0.88,0.01-1.76,0.08-2.63,0.01c-1.07-0.08-2.05-0.48-2.1-1.72c-0.06-1.23,0.53-2.16,1.8-2.54
	c1.15-0.34,2.23-0.08,3.31,0.29C910.63,167.35,910.36,168.65,909.41,169.9z"/>
<path class="st23" d="M855.72,173.37c-0.56-0.7-0.68-1.58-1-2.38c-0.73-1.79-0.29-2.97,1.72-3.34c1.82,0.06,2.34,0.55,2.41,2.28
	C858.71,172.39,858.14,173.02,855.72,173.37z"/>
<path class="st24" d="M909.41,169.9c0.13-1.32,0.25-2.64,0.38-3.96c1.03-0.04,2.05-0.08,3.08-0.12c0.64,1.26,1.28,2.52,1.92,3.78
	C913.03,170.38,911.2,169.86,909.41,169.9z"/>
<path class="st25" d="M929.99,195.28c1.75-0.5,3.5-0.36,5.26-0.02c0.16,1.36-0.16,2.34-1.77,2.46
	C931.43,197.87,930.44,197.21,929.99,195.28z"/>
<path class="st22" d="M836.08,191.53c1.68-0.56,3.29-0.16,4.89,0.35c0.18,1.93-0.97,2.39-2.58,2.34
	C836.64,194.18,835.9,193.25,836.08,191.53z"/>
<path class="st26" d="M845.92,192.27c1.71-0.72,3.47-0.29,5.21-0.25c0.15,1.59-0.5,2.51-2.14,2.62
	C847.08,194.76,846.25,194.12,845.92,192.27z"/>
<path class="st27" d="M918.98,194.97c1.73,0.01,3.46,0.02,5.2,0.03c0.23,1.62-0.37,2.56-2.1,2.61
	C920.08,197.67,919.19,196.92,918.98,194.97z"/>
<path class="st20" d="M858.85,169.92c-0.37-1.22-1.32-1.83-2.41-2.28c0.52-1.04,1.03-2.08,1.55-3.12
	C860.23,165.88,860.52,167.7,858.85,169.92z"/>
<path class="st28" d="M949.7,47.92c1.17-1.71,1.79-3.39,2.33-5.12c0.12-0.4,0.06-1.31,0.74-1.05c0.79,0.3,1.47,0.95,2.1,1.55
	c0.49,0.46-0.11,0.77-0.37,1.08c-0.93,1.11-1.89,2.2-2.81,3.32c-0.45,0.55-0.62,0.98,0.23,1.48c4.94,2.91,6.04,8.42,2.58,12.96
	c-0.95,1.24-2.03,2.4-3.62,3.03c-0.26-0.69-0.47-1.34-0.74-1.97c-0.77-1.77-1.95-2.46-3.32-1.97c-1.5,0.53-2.04,1.89-1.47,3.74
	c0.54,1.78,0.34,2.09-1.55,1.92c-4.8-0.43-9.45-1.45-13.74-3.79c-1.14-0.62-1.49-1.15-0.62-2.29c1.93-2.51,2.1-5.61,2.68-8.57
	c0.29-1.5,0.75-2.92,1.39-4.31c1.71-3.75,4.66-5.89,8.73-5.85C945.9,42.12,948.55,44.04,949.7,47.92z"/>
<path class="st6" d="M859.9,76.62c-0.4-13.42,10.17-21.33,21.04-22.43c10.81-1.1,22.84,7.84,24.87,18.33c0.6,3.09-0.1,6.04-1.8,8.67
	c-1.73,2.68-4.76,3.26-7.62,1.46c-1.97-1.23-3.77-2.74-5.72-4.01c-3.04-1.97-6.26-3.26-9.98-2.06c-2.76,0.89-4.6,3.03-6.63,4.89
	c-1.83,1.67-3.64,3.28-6.21,3.71c-4.84,0.82-7.7-1.41-7.94-6.3C859.87,78.13,859.9,77.37,859.9,76.62z"/>
<path class="st29" d="M894.9,46.55c2.45,0.41,4.82,1.5,6.77,3.38c0.73,0.71,1.32,1.63,0.74,2.7c-0.55,1.01-1.52,1.62-2.65,1.46
	c-3.1-0.46-5.85-1.85-8.35-3.69c-0.88-0.65-0.6-1.57,0-2.34C892.23,46.99,893.31,46.43,894.9,46.55z"/>
<path class="st29" d="M877.16,84.55c5.23-7.21,7.9-6.47,13.33-0.88c-1.86-0.82-2.65,0.01-3.51,1.26c-1.74,2.52-3.98,2.64-6.24,0.59
	C879.07,83.99,879.07,83.99,877.16,84.55z"/>
<path class="st6" d="M860.22,54.66c-0.09-1.45,0.85-2.46,1.87-3.44c1.43-1.37,3.06-2.39,5-2.91c1.09-0.29,2.05-0.19,2.68,0.77
	c0.59,0.92,0.59,2.07-0.14,2.83c-2.09,2.19-4.41,4.15-7.22,5.35C861.22,57.77,860.21,56.53,860.22,54.66z"/>
<path class="st30" d="M875.41,95.74c0.87,1.14,1.65,2.29,0.31,3.62c-0.95,0.95-3.3,1.08-4.57,0.28c-0.35-0.22-0.56-0.44-0.46-0.9
	c0.27-1.27,0.32-2.62,1.26-3.65C873.11,95.31,874.26,95.53,875.41,95.74z"/>
<path class="st6" d="M838.37,124.84c5.52,0.24,11.17,1.35,15.26,6.16c3.05,3.59,5.33,7.53,4.04,12.59
	c-1.08,4.23-4.03,5.57-7.85,3.48c-2.43-1.33-4.76-2.84-7.55-3.4c-2.63-0.53-4.85,0.14-6.78,1.94c-1.44,1.34-2.56,2.95-3.77,4.48
	c-1.65,2.1-3.6,3.69-6.5,3.63c-2.46-0.05-3.83-0.86-4.52-3.2c-3.6-12.16,2.92-22.12,13.68-25.39
	C835.56,124.77,836.75,124.93,838.37,124.84z"/>
<path class="st7" d="M823.56,122.63c0.93-0.05,1.78,0.15,2.29,0.99c0.51,0.85-0.03,1.57-0.44,2.25c-1.09,1.77-2.65,2.99-4.57,3.75
	c-1.15,0.46-1.96,0.19-2.16-1.17C818.2,125.32,820.46,122.62,823.56,122.63z"/>
<path class="st7" d="M835.32,150.7c2.68-5.56,5.26-6.07,10.5-2.08c-1.54-0.33-2.03,0.52-2.61,1.46c-1.38,2.25-3.17,2.56-5.18,0.82
	C837.18,150.14,836.45,149.92,835.32,150.7z"/>
<path class="st7" d="M848.82,123.05c-1.76-0.1-3.76-0.88-5.36-2.58c-0.6-0.64-0.9-1.37,0.01-1.89c3.12-1.77,5.77-1.99,7.71,1.48
	C852.25,121.97,851.52,123.09,848.82,123.05z"/>
<path class="st30" d="M873.66,109.62c0.34,0.6,0.51,1.31,1,1.91c1.05,1.29,0.61,2.81-0.87,3.56c-1.07,0.55-2.21,0.35-3.33,0.28
	c-0.87-0.06-0.54-0.77-0.57-1.3c-0.21-3.13-0.18-3.2,2.77-3.71C873.17,110.27,873.03,109.53,873.66,109.62z"/>
<path class="st30" d="M898.39,92.74c1.36-0.46,2.03-0.18,2.62-0.78c1.22-1.25,2.29-0.48,3.15,0.58c0.91,1.12,1.05,3.76,0.12,4.19
	c-1.13,0.52-2.45,0.25-3.61-0.24c-0.95-0.41-1.42-1.26-1.18-2.28C899.66,93.55,899.99,93,898.39,92.74z"/>
<path class="st31" d="M863.67,104.25c0.07-0.96,0.61-1.4,0.23-2.23c-0.64-1.43,0.61-2.9,2.24-2.85c1.02,0.03,1.99,0.39,2.81,0.98
	c0.91,0.66,0.18,3.13-1.2,4.11c-0.8,0.57-1.77,0.83-2.35-0.04C864.8,103.3,864.36,103.87,863.67,104.25z"/>
<path class="st10" d="M902.27,121.5c-0.1,1.35-2.04,3.29-3.28,3.26c-0.79-0.02-2.43-2.48-2.37-3.56c0.03-0.55,2.06-2.92,2.46-2.87
	C900.5,118.52,902.35,120.35,902.27,121.5z"/>
<path class="st31" d="M885.76,112.85c0.43-1.21,0.71-1.82,0.4-2.78c-0.47-1.49,1.87-2.86,3.66-2.06c0.88,0.39,2.65,0.79,2.29,1.77
	c-0.44,1.18-0.91,2.84-2.56,3.27c-0.63,0.17-1.3,0.25-1.77-0.27C887.22,112.17,886.77,111.5,885.76,112.85z"/>
<path class="st32" d="M880.93,118.66c-0.27,0.2-0.7-0.4-1.32-0.17c-2.33,0.85-3.94-0.69-3.33-3.12c0.21-0.85,0.26-2.33,1.28-2.24
	c1.21,0.1,2.7,0.27,3.54,1.45c0.58,0.82,0.69,1.84-0.15,2.55C880.14,117.82,881.71,117.95,880.93,118.66z"/>
<path class="st10" d="M878.47,105.2c-0.71,0-2.86-2.07-2.84-2.74c0.01-0.47,2.42-2.85,2.92-2.87c1.39-0.07,3.42,2.11,3.46,3.73
	C882.03,103.95,879.68,105.2,878.47,105.2z"/>
<path class="st33" d="M895.9,108.04c-0.62-0.2-0.87-0.84-1.56-0.97c-1.34-0.25-2.08-1.13-1.83-2.57c0.22-1.29,2.33-3.36,3.25-2.98
	c1.27,0.53,2.03,1.8,2.28,3.13c0.18,0.94-0.24,2.04-1.43,2.01C895.18,106.62,896.3,107.67,895.9,108.04z"/>
<path class="st30" d="M875.59,126.63c-0.57,0.61-1.24,0.8-1.68,1.37c-0.83,1.08-1.91,1.33-3.1,0.41c-1.25-0.97-2.01-2.98-1.3-3.99
	c0.77-1.08,2.13-0.93,3.25-0.97c1.01-0.04,1.81,0.76,1.81,1.79C874.57,126.03,874.73,126.48,875.59,126.63z"/>
<path class="st30" d="M870.41,122.44c-0.1-0.81,0-1.33-0.51-1.9c-1.25-1.41-0.7-2.94,1.12-3.59c2.9-1.04,3.76-0.45,3.63,2.45
	c-0.08,1.8-0.9,2.6-2.76,2.31C871.14,121.59,870.97,122.05,870.41,122.44z"/>
<path class="st30" d="M877.7,106.34c0.9,0.07,1.87-0.24,2.63,0.6c0.84,0.92-0.28,2.37,0.92,3.16c-1.31-0.07-1.74,1.59-3.07,1.54
	c-1.59-0.07-2.77-1.75-2.79-3.86C875.37,105.91,876.59,106.26,877.7,106.34z"/>
<path class="st31" d="M896.25,116.1c-0.25,1.26-0.34,2.84-1.81,3.16c-1.39,0.3-3.48-1.8-3.52-3.07c-0.03-1.06,0.94-1.73,1.01-2.74
	c1.1,1.09,2.62-0.78,3.68,0.51C896.1,114.57,896.31,115.29,896.25,116.1z"/>
<path class="st34" d="M901.53,111.88c-0.02,1.63-1.14,3.47-2.07,3.41c-1.1-0.08-3.2-2.09-3.22-3.08c-0.03-1.26,1.2-2.88,1.46-2.87
	C900.98,109.4,901.54,109.87,901.53,111.88z"/>
<path class="st30" d="M880.39,119.47c-0.03,0.92,0.14,1.44,0.94,1.88c1.29,0.7,1.2,1.95,0.39,3.08c-0.5,0.69-1.25,1.04-2.06,1.26
	c-0.71,0.19-1.69,0.77-2.08,0.01c-0.58-1.14-0.93-2.51-0.54-3.83c0.23-0.78,0.9-1.69,1.75-1.38
	C879.82,120.85,879.74,119.89,880.39,119.47z"/>
<path class="st31" d="M893.29,100.27c-1.25,0.14-2.63-1.24-2.7-1.73c-0.31-2.08,0.97-3.53,2.54-3.56c1.38-0.03,3.67,1.49,3.69,2.44
	C896.83,98.2,894.41,100.25,893.29,100.27z"/>
<path class="st30" d="M885.52,124.84c0.06,0.03,0.15,0.05,0.16,0.09c0.19,1.02,1.57-0.5,1.49,0.62c-0.1,1.4,1.07,3.27-1.18,4.06
	c-1.52,0.53-2.85-0.04-4.1-0.81c-0.5-0.31-0.4-0.83-0.14-1.34c0.58-1.11,1.09-2.25,1.63-3.37
	C884.25,123.91,884.93,124.24,885.52,124.84z"/>
<path class="st33" d="M892.37,128.28c-1.4-0.06-2.38-1.4-2.55-2.13c-0.41-1.77,1.26-3.55,2.7-3.49c0.97,0.04,3.42,2.14,3.42,2.94
	C895.94,126.29,893.26,128.31,892.37,128.28z"/>
<path class="st30" d="M874.55,103.24c-0.28,0.71-0.53,1.25-0.38,2.02c0.33,1.72-1.03,2.94-2.75,2.52c-1.14-0.28-2.71-0.62-2.93-1.73
	c-0.2-1.01,0.78-2.21,1.69-2.98c0.98-0.83,2.06-0.87,2.98,0.19C873.62,103.79,873.95,103.04,874.55,103.24z"/>
<path class="st32" d="M888.15,122.25c-1.57,0.03-3.6-1.54-3.59-2.77c0.01-0.72,2.32-2.76,3.18-2.48c1.19,0.39,2.47,1.02,3.26,1.94
	C891.52,119.54,889.09,122.23,888.15,122.25z"/>
<path class="st31" d="M889.42,104.45c-1.4,1.12-4.61,0.95-4.95-0.44c-0.29-1.15,0.55-2.34,1.32-3.31c0.66-0.83,1.56-1.15,2.48-0.52
	c0.57,0.39,1.05,0.72,1.84,0.25C889.39,101.85,887.8,102.89,889.42,104.45L889.42,104.45z"/>
<path class="st35" d="M885.52,124.84c-0.85,0.16-1.54-0.17-2.13-0.76c-0.16-0.96,0.03-1.78,1.06-2.12c0.67-0.22,1.25,0.04,1.64,0.6
	C886.78,123.54,886.15,124.2,885.52,124.84z"/>
<path class="st36" d="M886.24,115.11c-0.18,0.9-0.64,1.46-1.54,1.43c-0.97-0.04-1.53-0.61-1.43-1.6c0.09-0.89,0.71-1.35,1.57-1.29
	C885.7,113.72,886.15,114.3,886.24,115.11z"/>
<path class="st37" d="M886.38,107.12c-0.05,0.85-0.5,1.41-1.38,1.48c-0.96,0.07-1.59-0.42-1.63-1.41c-0.04-0.94,0.61-1.39,1.44-1.42
	C885.65,105.73,886.23,106.19,886.38,107.12z"/>
<path class="st38" d="M889.41,104.44c0.03-0.67-0.1-1.4,0.59-1.92C890.33,103.35,890.2,104,889.41,104.44
	C889.42,104.45,889.41,104.44,889.41,104.44z"/>
<path class="st6" d="M951.9,148.16c0.05,3.6-1.17,6.67-4.01,8.96c-2.08,1.68-4.28,1.56-6.04-0.41c-1.46-1.64-2.66-3.51-4.04-5.22
	c-3.35-4.15-7.14-4.95-11.88-2.58c-1.07,0.53-2.12,1.12-3.21,1.6c-2.56,1.1-5.27,1.57-7.47-0.42c-2.25-2.05-2.07-4.94-1.28-7.61
	c2.24-7.57,7.47-11.78,15.1-13.42c5.91-1.27,10.76,0.81,15.32,4.18C949.4,136.92,951.9,141.91,951.9,148.16z"/>
<path class="st7" d="M953.32,130.99c-0.04,1.63-1.08,2.43-2.6,1.92c-2.14-0.72-3.96-1.91-5.14-3.92c-0.64-1.09-0.41-1.9,0.74-2.47
	C949.45,124.98,953.4,127.49,953.32,130.99z"/>
<path class="st7" d="M922.4,126.84c-0.62-0.09-1.77,0.33-2.23-0.79c-0.45-1.08,0.04-2.09,0.73-2.98c1.99-2.57,4.75-2.23,6.91-0.86
	c1.39,0.89,1.37,2.06,0.01,3.03C926.3,126.34,924.57,126.91,922.4,126.84z"/>
<path class="st7" d="M935.75,154.52c-1.38-0.78-2-0.09-2.7,0.43c-2.22,1.66-4.02,1.38-5.25-1.06c-0.63-1.25-1.38-1.41-2.76-0.9
	C929.6,148.57,932.49,148.93,935.75,154.52z"/>
<path class="st10" d="M929.08,183.6c-0.45,0.68-0.76,1.34-1.92,1.03c-0.86-0.23-1.42-0.65-1.63-1.32c-0.29-0.91,0.4-1.66,0.9-2.36
	c0.35-0.49,0.87-0.38,1.34-0.05c0.62,0.43,1.25,0.84,1.88,1.25C929.81,182.78,929.69,183.29,929.08,183.6z"/>
<path class="st10" d="M925.33,188.66c-1.53,0.04-2.02-1.07-1.97-2.1c0.05-0.93,1.03-1.46,2.03-1.43c1.55,0.05,1.74,1.33,1.81,2.41
	C927.31,188.99,925.91,188.29,925.33,188.66z"/>
<path class="st17" d="M916.48,166.78c-2.08,0.18-2.11-1.42-2.1-2.6c0.01-0.83,1.25-0.96,1.93-0.95c1.47,0.03,1.7,1.36,1.76,2.45
	C918.12,166.69,917.39,167.08,916.48,166.78z"/>
<path class="st10" d="M920.82,170.69c0.38-0.49-0.11-1.79,1.2-1.61c1.13,0.16,2.4,0.21,2.44,1.99c0.04,1.65-1.2,1.69-2.11,1.73
	C921.21,172.86,920.88,171.84,920.82,170.69z"/>
<path class="st10" d="M939.27,170.11c-0.98-0.01-1.42-0.44-1.44-1.49c-0.03-1.59,0.93-2.22,2.21-2.15c0.97,0.05,1.51,1.11,1.52,2
	C941.59,169.9,940.32,169.94,939.27,170.11z"/>
<path class="st17" d="M919.62,169.95c-0.25,0.75-0.64,2.03-1.67,1.92c-0.89-0.1-2-1.07-1.9-2.21c0.07-0.76,0.3-1.97,1.81-1.67
	C918.95,168.2,919.88,168.3,919.62,169.95z"/>
<path class="st17" d="M936.89,168.02c-0.55,0.87-1.35,1.39-2.36,1.53c-1.23,0.17-1.12-1.35-1.98-1.69c0.64-0.69,0.65-1.98,1.96-2.04
	C936,165.74,936.3,166.94,936.89,168.02z"/>
<path class="st10" d="M922.61,183.7c-0.89,0.56-0.4,2.28-1.99,2.17c-1.19-0.08-2.18-0.62-2.29-1.8c-0.11-1.22,1.12-1.6,2.02-1.8
	C921.38,182.04,921.84,183.15,922.61,183.7z"/>
<path class="st17" d="M936.74,177.01c1.39-0.16,2.25,0.21,2.24,1.62c-0.01,0.94-0.08,2.1-1.29,2.12c-1.08,0.02-2.23-0.62-2.18-1.86
	C935.54,178.29,935.21,176.71,936.74,177.01z"/>
<path class="st10" d="M923.02,165.07c-0.1,0.6-0.82,1.65-1.88,1.62c-0.88-0.02-1.84-0.98-1.76-2.12c0.05-0.78,0.67-1.94,1.32-1.8
	C921.57,162.97,923.22,162.7,923.02,165.07z"/>
<path class="st17" d="M933.69,186.72c-0.34,1.02-0.92,1.69-1.98,1.78c-1.07,0.09-1.81-0.62-2.21-1.42c-0.35-0.7,1.23-2.39,2.06-2.26
	C932.65,184.99,933.19,185.86,933.69,186.72z"/>
<path class="st10" d="M936.73,172.53c0.25,1.31-0.42,2.02-1.83,1.92c-1.02-0.07-1.72-0.75-1.69-1.76c0.05-1.42,1.25-1.76,2.37-1.92
	C936.85,170.58,936.71,171.58,936.73,172.53z"/>
<path class="st10" d="M926.74,172.49c1.22,0.08,2.3,0.29,1.98,1.82c-0.2,0.97-0.59,2.17-1.83,1.93c-0.91-0.18-1.89-0.97-1.77-2.1
	C925.21,173.35,925.65,172.44,926.74,172.49z"/>
<path class="st10" d="M924.65,166.98c-0.22-1.2,1.01-1.39,1.79-1.47c1.28-0.12,1.54,0.91,1.59,2.03c0.05,1.15-0.26,1.77-1.55,1.68
	C925.16,169.13,924.58,168.5,924.65,166.98z"/>
<path class="st10" d="M923.84,180.86c-1.51,0.04-1.8-1.24-1.8-1.93c0.01-0.78,0.74-1.78,1.88-1.73c1.46,0.06,2.01,1.26,1.95,2.36
	C925.81,180.59,924.45,180.49,923.84,180.86z"/>
<path class="st30" d="M935.22,184.57c-0.27-1.44,0.37-2.25,1.76-2.22c1,0.02,1.44,0.93,1.59,1.79c0.18,1.05-1.12,2.09-2.43,2.06
	C934.92,186.17,935.32,185.22,935.22,184.57z"/>
<path class="st10" d="M920.3,180.45c-0.49,0.79-1.46,1.08-2.29,1.14c-1.26,0.08-1.22-1.41-1.93-2.06c0.72-0.52,1.04-1.63,2.14-1.57
	C919.68,178.03,919.98,179.17,920.3,180.45z"/>
<path class="st10" d="M919,172.85c1.1,0.36,2.44,0.55,2.45,1.81c0.01,1.1-0.98,1.95-2.11,2.04c-1.12,0.09-1.57-0.92-1.39-1.8
	C918.09,174.21,917.78,173.02,919,172.85z"/>
<path class="st39" d="M930.29,176.06c0.7-1.45,1.95-0.86,2.86-0.54c0.89,0.31,0.93,1.99,0.76,2.19c-0.71,0.82-1.63,1.85-2.98,0.89
	C930.78,177.74,930.59,176.89,930.29,176.06z"/>
<path class="st39" d="M929.92,182.05c0.18-0.94,1.35-0.83,1.74-1.67c0.2-0.43,1.04-0.2,1.48,0.24c0.64,0.64,1.05,1.41,0.87,2.35
	c-0.13,0.65-0.69,0.62-1.19,0.62c-0.37,0.01-0.75-0.02-1.12-0.03C931.05,183.12,930.32,182.78,929.92,182.05z"/>
<path class="st40" d="M929.92,182.05c1.01,0.01,1.73,0.36,1.78,1.51c-0.86,1.04-1.72,1.92-2.62,0.04c0-0.56,0.22-1.03,0.57-1.45
	C929.75,182.16,929.84,182.12,929.92,182.05z"/>
<path class="st41" d="M931.7,171.68c-0.16,0.78-0.65,1.22-1.42,1.17c-0.68-0.05-1.17-0.48-1.13-1.22c0.04-0.82,0.6-1.22,1.37-1.17
	C931.21,170.51,931.59,170.99,931.7,171.68z"/>
<path class="st40" d="M930.29,176.06c1.41,0.54,1.6,1.4,0.64,2.54c-0.77,0.05-1.55,0.05-1.8-0.89
	C928.89,176.76,929.64,176.43,930.29,176.06z"/>
<path class="st42" d="M840.23,168.49c0.55-0.55,1.43-0.7,1.72-1.6c0.51-1.62,1.78-1.23,2.92-0.94c1.08,0.28,0.4,1.27,0.49,1.84
	c0.16,1.05-0.79,1.43-1.76,1.39c-0.65-0.03-1.05,0.29-1.4,0.77C841.46,169.58,840.83,169.06,840.23,168.49z"/>
<path class="st17" d="M846.28,163.66c-0.15-1.62,0.94-2.11,2.22-2.15c1.23-0.05,1.41,1.22,1.46,1.97c0.1,1.5-1.29,1.73-2.37,1.83
	C846.6,165.4,846.16,164.65,846.28,163.66z"/>
<path class="st43" d="M854.05,166.19c-1.41,0.1-2.39-0.26-2.35-2.05c0.03-1.39,1.26-1.59,1.88-1.58c1.31,0.02,1.81,1.11,1.77,2.41
	C855.32,165.79,855.28,166.57,854.05,166.19z"/>
<path class="st10" d="M846.26,181.32c-1.37,0.07-2.77-0.14-4.11,0.38c-0.38-0.33-0.4-0.71-0.11-1.11c0.4-0.3,0.45-0.74,0.42-1.19
	c-0.07-0.98,0.22-1.55,1.35-1.5c1.14,0.05,2.09,0.37,1.98,1.67C845.75,180.29,846.2,180.73,846.26,181.32L846.26,181.32z"/>
<path class="st10" d="M834.63,178.41c0.6,0.44,2.03,0.05,1.91,1.4c-0.09,0.98-0.32,2.27-1.79,2.25c-1.18-0.01-2.1-0.4-2.06-1.87
	C832.73,178.96,833.51,178.61,834.63,178.41z"/>
<path class="st44" d="M856.53,176.82c0.12,0.75,0.42,1.47,0.26,2.25c-0.8,1.04-1.86,0.91-2.86,0.5c-0.78-0.32-0.93-1.06-0.78-1.9
	c0.08-0.43-0.17-0.76,0.51-1.08C854.75,176.09,855.63,175.95,856.53,176.82z"/>
<path class="st10" d="M854.61,172.59c-0.05,1.87-0.97,2.49-2.06,2.59c-1.36,0.13-1.54-1.17-1.66-2.07
	c-0.18-1.25,1.17-1.43,1.87-2.05C853.17,171.91,854.65,171.83,854.61,172.59z"/>
<path class="st17" d="M837.23,169.77c-0.53,0.7-0.55,1.99-1.72,1.98c-1.26-0.01-2.23-0.9-2.33-2.08c-0.1-1.24,1.08-1.46,2.1-1.6
	C836.57,167.89,836.74,169,837.23,169.77z"/>
<path class="st43" d="M851.21,169.57c0.15,0.96-0.57,1.16-1.61,1.17c-1.19,0.01-2.1-0.39-2.01-1.63c0.07-0.98,0.63-2.11,1.82-2.06
	C850.62,167.1,851.16,168.08,851.21,169.57z"/>
<path class="st17" d="M850.06,176.91c-0.13,0.84-0.21,1.85-1.32,1.68c-1.04-0.16-2.36-0.26-2.39-1.85
	c-0.02-1.33,0.92-1.74,1.97-1.82C849.67,174.83,849.85,175.93,850.06,176.91z"/>
<path class="st17" d="M839.03,165.89c-0.35,1-1.28,1.27-2.17,1.36c-1.32,0.14-1.8-1.14-1.86-1.94c-0.06-0.75,0.71-1.75,1.82-1.74
	C838.23,163.59,838.59,164.74,839.03,165.89z"/>
<path class="st44" d="M841.72,170.73c0.44,1.28,1.03,2.59-0.76,3.37c-0.27,0.45-0.61,0.69-1.13,0.38c-1.84-1.39-1.7-2.93-0.34-4.56
	C840.37,169.79,841.1,170.1,841.72,170.73z"/>
<path class="st10" d="M846.26,181.33c0.96,0.5,2.55,0.29,2.24,2.2c-0.15,0.9-0.52,1.4-1.34,1.54c-1.01,0.16-1.9-0.23-2.47-1.05
	c-0.58-0.84,0.39-1.17,0.75-1.67C845.69,181.99,845.99,181.66,846.26,181.33C846.26,181.32,846.26,181.33,846.26,181.33z"/>
<path class="st17" d="M831.61,164.41c1.53-0.11,1.9,1.02,1.87,2.01c-0.03,1.17-1.09,1.68-2.16,1.56c-0.62-0.07-1.78,0.06-1.46-1.34
	C830.12,165.56,830.06,164.34,831.61,164.41z"/>
<path class="st10" d="M851.34,183.22c-0.53,0-1.42,0.04-1.24-1.09c0.17-1.05,0.16-2.34,1.82-2.32c1.22,0.01,1.87,0.63,1.87,1.78
	C853.78,183.02,852.74,183.25,851.34,183.22z"/>
<path class="st10" d="M844.99,174.68c-0.88-0.53-1.2-1.47-1.32-2.43c-0.14-1.11,1.06-1.05,1.6-1.58c0.54,0.76,2.13,0.31,2.06,1.71
	C847.26,173.74,846.24,174.26,844.99,174.68z"/>
<path class="st10" d="M840.96,176.76c-0.38,1.72-1.62,2.43-3.12,1.8c-0.83-0.35-0.86-0.95-0.67-1.7c0.3-1.17,0.86-1.96,2.24-1.6
	C840.13,175.55,840.72,175.97,840.96,176.76z"/>
<path class="st45" d="M841.35,182.54c-1.23,2.35-2.43,2.74-3.48,1.15c-0.6-0.91-0.09-1.7,0.21-2.49c0.29-0.76,0.89-0.48,1.42-0.24
	C840.17,181.42,840.96,181.74,841.35,182.54z"/>
<path class="st46" d="M840.96,176.76c-0.78-0.23-1.45-0.57-1.55-1.5c0.14-0.26,0.28-0.52,0.42-0.79c0.38-0.13,0.76-0.25,1.13-0.38
	C842.49,174.98,842.48,175.87,840.96,176.76z"/>
<path class="st47" d="M841.35,182.54c-1.07,0-1.77-0.43-1.85-1.58c0.72-1.01,1.57-1.11,2.55-0.37c0.04,0.37,0.07,0.74,0.11,1.11
	C841.89,181.98,841.62,182.26,841.35,182.54z"/>
<path class="st48" d="M841.72,170.73c-0.93,0.24-1.72,0.1-2.23-0.81c0.05-0.58,0.39-1,0.74-1.42c1.13-0.15,1.86,0.24,1.96,1.47
	C842.03,170.22,841.87,170.47,841.72,170.73z"/>
<path class="st49" d="M946.77,54.35c0.74-1.52,1.71-1.62,3-0.96c2.33,1.19,4.29,5,3.73,7.5c-0.1,0.45-0.46,0.89-0.79,1.24
	c-0.36,0.38-0.67,1.1-1.32,0.79c-0.52-0.25-0.28-0.92-0.23-1.38C951.53,58.02,950.08,55.6,946.77,54.35z"/>
<path class="st50" d="M945.65,53.11c-2.01-5.06-4.19-6.21-10.11-5.43c0.17-1.62,0.41-1.61,3.61-1.81c2.74-0.17,5.39,0.55,6.76,3.45
	C946.78,51.2,946.78,51.82,945.65,53.11z"/>
<path class="st49" d="M934.21,50.18c0.24-2.16,1.8-2.01,3.02-2.07c3.1-0.13,5.85,1.59,6.75,4.1c0.38,1.07,1.05,2.27-0.67,3.15
	C942.07,50.66,938.88,49.2,934.21,50.18z"/>
<path class="st51" d="M937.97,45.12c2.59-2.47,6.85-1.78,8.94,0.13c1.68,1.54,2.01,3.47,0.69,5.53
	C946.23,45.89,942.89,44.29,937.97,45.12z"/>
<path class="st50" d="M935.64,50.68c3.27,0.09,5.87,1.94,6.41,4.55c0.15,0.73,0.26,1.46-0.62,1.71c-0.82,0.23-0.77-0.6-1.01-1.06
	c-1.14-2.2-2.81-3.48-5.42-3.35c-0.45,0.02-1.37,0.79-1.42-0.43c-0.04-0.93,0.39-1.58,1.49-1.43
	C935.26,50.7,935.45,50.67,935.64,50.68z"/>
<path class="st50" d="M954.17,57.84c-0.36-2.59-1.51-4.6-4.01-5.69c-0.4-0.18-1.37-0.07-0.86-1c0.34-0.63,0.66-1.35,1.7-1.13
	c1.82,0.38,3.7,2.45,3.89,4.6c0.1,1.18-0.01,2.38-0.02,3.57C954.42,58.47,954.34,58.06,954.17,57.84z"/>
<path class="st49" d="M943.97,64.15c0.16,0.89-0.32,1.39-1.59,1.3c-1.33-0.09-1.11-0.8-0.89-1.68c0.29-1.19-0.16-2.2-0.96-3.09
	c-0.25-0.28-0.87-0.53-0.37-1.04c0.4-0.42,0.95-0.37,1.39-0.06C943.01,60.6,943.87,61.99,943.97,64.15z"/>
<path class="st51" d="M934.54,53.3c2.27,0.02,4.67,1.9,5.08,3.89c0.11,0.55,0.11,1.02-0.45,1.28c-0.71,0.33-0.83-0.23-1.01-0.71
	c-0.67-1.77-2.03-2.63-3.85-2.9c-0.48-0.07-1.29,0.23-1.15-0.74C933.27,53.31,933.92,53.24,934.54,53.3z"/>
<path class="st51" d="M950.24,60.86c-2.39-0.5-3.24-2.95-5.28-3.84c-0.37-0.16-0.64-0.45-0.25-0.86c0.47-0.5,0.88-1,1.76-0.61
	C948.35,56.38,949.67,58.14,950.24,60.86z"/>
<path class="st52" d="M940.53,63.8c0.1,0.83-0.2,1.34-1.24,1.26c-0.96-0.08-1.14-0.48-0.83-1.36c0.25-0.71-0.19-1.31-0.58-1.88
	c-0.19-0.27-0.71-0.51-0.33-0.9c0.36-0.38,0.84-0.46,1.37-0.19C939.8,61.18,940.53,62.49,940.53,63.8z"/>
<path class="st53" d="M937.26,59.04c0.02,0.47-0.3,0.64-0.66,0.79c-0.54,0.22-0.63-0.16-0.73-0.53c-0.38-1.31-1.1-2.21-2.59-2.31
	c-0.4-0.02-0.69-0.34-0.59-0.79c0.08-0.36,0.2-0.73,0.64-0.83C934.72,55.04,937.42,57.55,937.26,59.04z"/>
<path class="st54" d="M944.97,61.06c-0.96-0.88-1.83-1.67-2.7-2.48c-0.04-0.04-0.07-0.13-0.05-0.17c0.28-0.53,0.66-0.92,1.32-0.85
	c0.76,0.07,2.96,1.97,2.7,2.37C945.91,60.42,945.34,60.74,944.97,61.06z"/>
<path class="st53" d="M931.67,61.98c0.55,0.03,0.8,0.05,1.05,0.05c0.71,0,1.43,0.27,1.25,1.02c-0.25,1.02-1,0.24-1.53,0.15
	c-0.36-0.06-0.73-0.22-1.04-0.41c-0.45-0.28-1.43-0.24-1.27-0.86c0.18-0.73,0.82-1.39,1.38-1.96c0.3-0.31,0.7,0.01,0.91,0.35
	C932.86,61.03,932.37,61.45,931.67,61.98z"/>
<path class="st55" d="M936.35,64.36c-1.48,0.13-1.5-1.06-1.59-2.13c-0.08-0.92,0.76-0.8,1.19-0.7c1.15,0.26,1.52,1.19,1.52,2.28
	C937.47,64.57,937.03,64.61,936.35,64.36z"/>
<path class="st56" d="M932.89,57.51c1.21,0.32,1.92,1.12,2.13,2.36c0.1,0.54-0.17,0.84-0.67,0.95c-0.29,0.06-2.49-2-2.41-2.3
	C932.07,58.04,932.19,57.5,932.89,57.51z"/>
<path class="st57" d="M954.17,57.84c0.23,0.12,0.46,0.24,0.69,0.35c-0.04,0.27-0.01,0.69-0.43,0.55
	C954.03,58.61,954.17,58.17,954.17,57.84z"/>
<path class="st58" d="M901.55,73.36c-0.33,0.94-0.55,1.94-1.01,2.81c-1.99,3.74-5.98,4.06-8.48,0.62c-2.17-2.98-2.44-6.35-1.5-9.86
	c1.01-0.7,1.81-0.4,2.5,0.5c0.35,0.8,0.07,1.61,0.04,2.42c-0.05,1.41,0.09,2.78,1,3.94c1.06,1.35,2.26,1.26,3.16-0.21
	c0.4-0.66,0.54-1.4,0.61-2.16c0.07-0.74,0-1.54,0.75-2.03C901.41,69.4,901.98,70.18,901.55,73.36z"/>
<path class="st2" d="M863.72,74.92c-1.23-2.62,0.19-7.8,2.31-9.79c2.55-2.39,6.95-1.23,7.85,2.2c-0.26,1.16-1.29,1.6-2.1,2.24
	c-1.81,1.28-3.62,2.58-5.28,4.05C865.58,74.07,864.92,75.07,863.72,74.92z"/>
<path class="st59" d="M863.72,74.92c0.79-0.61,1.41-1.51,2.56-1.53c0.7,0.33,0.81,1.09,1.18,1.65c1.09,1.67,2.46,1.67,3.52-0.03
	c0.73-1.17,0.9-2.46,0.68-3.81c-0.11-0.66-0.48-1.33-0.03-2c0.6-0.81,1.49-1.26,2.25-1.86c1.78,3.43,1.62,6.89-0.08,10.26
	c-0.91,1.81-2.34,3.13-4.56,3.11c-2.21-0.02-3.56-1.37-4.51-3.17C864.3,76.71,864.05,75.79,863.72,74.92z"/>
<path class="st60" d="M901.55,73.36c0-2.72,0-2.72-3.07-3.75c-2.16,0.26-3.94-0.61-5.6-1.86c-0.64-0.65-1.44-0.86-2.32-0.82
	c0.32-2.17,1.46-3.74,3.54-4.46c2.2-0.76,4.14-0.13,5.55,1.69C901.76,66.88,902.41,69.98,901.55,73.36z"/>
<path class="st61" d="M832.66,143.74c0.02,1.1-0.39,3.13-1.64,4.89c-1.6,2.26-4.05,2.37-5.93,0.33c-2.84-3.07-3.25-9.96-0.79-13.3
	c1.66-2.25,4.08-2.41,5.92-0.32C832.06,137.43,832.64,139.99,832.66,143.74z"/>
<path class="st59" d="M854.32,139.51c-0.07,2.14-0.17,4.29-2.44,5.32c-1.59,0.72-3.77-0.36-5.4-2.58c-1.92-2.63-2.83-5.57-2.53-8.85
	c0.15-1.64,0.65-3.18,2.28-3.84c1.72-0.69,3.19,0.13,4.41,1.34C853.04,133.28,854.14,136.21,854.32,139.51z"/>
<path class="st62" d="M938.57,146.46c-0.04-2.54,0.5-4.78,1.89-6.75c2.14-3.03,5.42-2.91,7.04,0.39c1.99,4.03,1.72,8.09-0.79,11.83
	c-2.06,3.07-5.27,2.77-7.03-0.51C938.83,149.82,938.52,148.11,938.57,146.46z"/>
<path class="st62" d="M917.43,142.56c0.16-2.58,1.16-5.51,3.59-7.78c1.18-1.1,2.54-1.9,4.27-1.29c1.69,0.6,2.39,2,2.7,3.6
	c0.63,3.18-0.04,6.14-1.79,8.84c-1.53,2.36-3.68,3.4-5.67,2.83C918.61,148.2,917.42,146.09,917.43,142.56z"/>
<path class="st63" d="M892.88,67.75c1.98,0.27,3.71,1.3,5.6,1.86c0.09,1.38,0.17,2.76-0.45,4.06c-0.45,0.94-1.1,1.75-2.2,1.84
	c-1.18,0.09-2.01-0.62-2.56-1.6C892.19,71.92,892.06,69.86,892.88,67.75z"/>
<path class="st63" d="M871.63,69.19c0.9,1.7,1,3.46,0.4,5.27c-0.43,1.31-1.15,2.51-2.65,2.58c-1.52,0.07-2.3-1.08-2.78-2.39
	c-0.15-0.41-0.22-0.84-0.33-1.27C867.68,71.5,869.7,70.4,871.63,69.19z"/>
<path class="st64" d="M830.67,142.11c-0.03,2.22-1.12,4.01-2.54,4.15c-1.52,0.15-2.77-1.38-3.18-3.81
	c-0.23-1.35-0.09-2.64,0.54-3.84c0.98-1.86,2.81-1.94,4.06-0.24C830.17,139.21,830.69,140.94,830.67,142.11z"/>
<path class="st65" d="M851.7,137.58c-0.08,1.25-0.13,2.78-1.8,3.21c-1.61,0.41-2.55-0.73-3.28-1.98c-0.92-1.58-1.23-3.29-0.72-5.07
	c0.53-1.83,2.16-2.32,3.68-1.16C850.81,133.5,851.69,135.53,851.7,137.58z"/>
<path class="st63" d="M946.56,145.06c-0.07,1.28-0.35,2.49-1.1,3.55c-1.3,1.82-3.2,1.65-4.09-0.42c-0.85-1.98-0.64-3.96,0.39-5.82
	c0.5-0.91,1.23-1.68,2.39-1.54c1.14,0.13,1.69,1,2.04,2C946.43,143.55,946.63,144.29,946.56,145.06z"/>
<path class="st63" d="M920.04,141.2c0.18-1.86,0.68-3.53,2.13-4.73c1.41-1.18,3-0.7,3.55,1.05c0.54,1.71,0.27,3.38-0.56,4.93
	c-0.7,1.32-1.62,2.64-3.35,2.14C920.21,144.12,920.12,142.58,920.04,141.2z"/>
<path class="st0" d="M-181.72,224.09c5.13,0.6,9.79,2.68,14.49,4.64c5.19,2.16,10.41,4.05,16.19,3.76
	c4.42-0.22,8.49-1.57,12.51-3.24c5.28-2.19,10.49-4.6,16.28-5.17c1.63-0.23,3.25-0.24,4.88,0c5.11,0.62,9.78,2.63,14.45,4.62
	c5.34,2.27,10.75,4.15,16.7,3.78c3.81-0.23,7.34-1.46,10.89-2.7c0.45-0.37,0.98-0.59,1.54-0.72c3.97-1.54,7.83-3.37,12.01-4.32
	c1.28-0.29,2.59-0.45,3.88-0.67c1.63-0.24,3.25-0.24,4.88,0c4.14,0.5,8.01,1.94,11.84,3.49c0.69,0.28,1.41,0.5,2.12,0.75
	c1.21-0.27,2.21,0.35,3.26,0.75c3.96,1.54,7.97,2.67,12.29,2.74c5.53,0.09,10.52-1.76,15.47-3.87c2.67-1.14,5.36-2.21,8.12-3.12
	c5.89-1.94,11.75-1.89,17.65,0.01c4.33,1.39,8.45,3.33,12.69,4.94c7.38,2.81,14.66,2.63,21.96-0.23c3.7-1.45,7.33-3.07,11.07-4.42
	c7.04-2.54,13.98-2.21,20.89,0.45c3.83,1.47,7.6,3.08,11.45,4.5c7.11,2.62,14.1,2.13,21.05-0.57c4.17-1.62,8.22-3.57,12.52-4.86
	c7.91-2.38,15.45-1.31,22.69,2.48c0.16,0.14,0.31,0.28,0.46,0.42c0.38,0.24,0.76,0.47,1.15,0.71c0.52-0.28,0.82,0.1,1.13,0.4
	c7.48,3.51,15.17,5.29,23.3,2.52c3.13-1.07,6.17-2.42,9.25-3.62c1.22-0.48,2.18-1.5,3.53-1.55c0.4,0.57,0.43,1.63,0.43,2.25
	c0.01,69.96,0.01,139.92,0,209.88c0,0.62,0.16,1.26-0.18,1.85c-142.51,0-285.02,0-427.52,0.04c-1.42,0-1.74-0.32-1.74-1.74
	c0.04-70.76,0.04-141.52,0.04-212.28c5.52,2.22,10.83,4.98,16.76,6.08c5.9,1.1,11.46-0.07,16.92-2.25
	c5.23-2.09,10.32-4.6,15.96-5.53c0.62-0.1,1.24-0.16,1.86-0.24C-184.97,223.85-183.35,223.84-181.72,224.09z"/>
<path class="st0" d="M1104.54,224.09c5.13,0.6,9.79,2.68,14.49,4.64c5.19,2.16,10.41,4.05,16.19,3.76
	c4.42-0.22,8.49-1.57,12.51-3.24c5.28-2.19,10.49-4.6,16.28-5.17c1.63-0.23,3.25-0.24,4.88,0c5.11,0.62,9.78,2.63,14.45,4.62
	c5.34,2.27,10.75,4.15,16.7,3.78c3.81-0.23,7.34-1.46,10.89-2.7c0.45-0.37,0.98-0.59,1.54-0.72c3.97-1.54,7.83-3.37,12.01-4.32
	c1.28-0.29,2.59-0.45,3.88-0.67c1.63-0.24,3.25-0.24,4.88,0c4.14,0.5,8.01,1.94,11.84,3.49c0.69,0.28,1.41,0.5,2.12,0.75
	c1.21-0.27,2.21,0.35,3.26,0.75c3.96,1.54,7.97,2.67,12.29,2.74c5.53,0.09,10.52-1.76,15.47-3.87c2.67-1.14,5.36-2.21,8.12-3.12
	c5.89-1.94,11.75-1.89,17.65,0.01c4.33,1.39,8.45,3.33,12.69,4.94c7.38,2.81,14.66,2.63,21.96-0.23c3.7-1.45,7.33-3.07,11.07-4.42
	c7.04-2.54,13.98-2.21,20.89,0.45c3.83,1.47,7.6,3.08,11.45,4.5c7.11,2.62,14.1,2.13,21.05-0.57c4.17-1.62,8.22-3.57,12.52-4.86
	c7.91-2.38,15.45-1.31,22.69,2.48c0.16,0.14,0.31,0.28,0.46,0.42c0.38,0.24,0.76,0.47,1.15,0.71c0.52-0.28,0.82,0.1,1.13,0.4
	c7.48,3.51,15.17,5.29,23.3,2.52c3.13-1.07,6.17-2.42,9.25-3.62c1.22-0.48,2.4-1.09,3.75-1.14c0.4,0.57,0.21,1.23,0.21,1.84
	c0.01,69.96,0.01,139.92,0,209.88c0,0.62,0.16,1.26-0.18,1.85c-142.51,0-285.02,0-427.52,0.04c-4.69-0.04-1.74-0.32-1.74-1.74
	c0.04-70.76-0.15-141.11-0.15-211.87c2.04,0.2,11.02,4.57,16.95,5.68c5.9,1.1,11.46-0.07,16.92-2.25c5.23-2.09,10.32-4.6,15.96-5.53
	c0.62-0.1,1.24-0.16,1.86-0.24C1101.29,223.85,1102.92,223.84,1104.54,224.09z"/>
<path class="st0" d="M246.61,224.09c5.13,0.6,9.79,2.68,14.49,4.64c5.19,2.16,10.41,4.05,16.19,3.76c4.42-0.22,8.49-1.57,12.51-3.24
	c5.28-2.19,10.49-4.6,16.28-5.17c1.63-0.23,3.25-0.24,4.88,0c5.11,0.62,9.78,2.63,14.45,4.62c5.34,2.27,10.75,4.15,16.7,3.78
	c3.81-0.23,7.34-1.46,10.89-2.7c0.45-0.37,0.98-0.59,1.54-0.72c3.97-1.54,7.83-3.37,12.01-4.32c1.28-0.29,2.59-0.45,3.88-0.67
	c1.63-0.24,3.25-0.24,4.88,0c4.14,0.5,8.01,1.94,11.84,3.49c0.69,0.28,1.41,0.5,2.12,0.75c1.21-0.27,2.21,0.35,3.26,0.75
	c3.96,1.54,7.97,2.67,12.29,2.74c5.53,0.09,10.52-1.76,15.47-3.87c2.67-1.14,5.36-2.21,8.12-3.12c5.89-1.94,11.75-1.89,17.65,0.01
	c4.33,1.39,8.45,3.33,12.69,4.94c7.38,2.81,14.66,2.63,21.96-0.23c3.7-1.45,7.33-3.07,11.07-4.42c7.04-2.54,13.98-2.21,20.89,0.45
	c3.83,1.47,7.6,3.08,11.45,4.5c7.11,2.62,14.1,2.13,21.05-0.57c4.17-1.62,8.22-3.57,12.52-4.86c7.91-2.38,15.45-1.31,22.69,2.48
	c0.16,0.14,0.31,0.28,0.46,0.42c0.38,0.24,0.76,0.47,1.15,0.71c0.52-0.28,0.82,0.1,1.13,0.4c7.48,3.51,15.17,5.29,23.3,2.52
	c3.13-1.07,5.01-1.59,7.96-3.11c0.86-0.44,3.76-2.04,4.4-2.06c0.4,0.57,0.85,1.63,0.85,2.25c0.01,69.96,0.01,139.92,0,209.88
	c0,0.62,0.16,1.26-0.18,1.85c-142.51,0-285.02,0-427.52,0.04c-1.42,0-1.74-0.32-1.74-1.74c0.04-70.76,0.04-141.52,0.04-212.28
	c5.52,2.22,10.83,4.98,16.76,6.08c5.9,1.1,11.46-0.07,16.92-2.25c5.23-2.09,10.32-4.6,15.96-5.53c0.62-0.1,1.24-0.16,1.86-0.24
	C243.36,223.85,244.98,223.84,246.61,224.09z"/>
</svg>
